<?xml version="1.0" encoding="utf-8"?>
<svg viewBox="33.162 67.01 342.234 136.264" width="342.234" height="136.264" xmlns="http://www.w3.org/2000/svg">
  <g stroke="#000" transform="matrix(0.176852, 0, 0, 0.176852, 30.638096, 38.263931)" style="">
    <path d="m209.27 228.49c-82.828 55.752-137.77 152.95-137.77 263.56 0 172.92 134.17 313.24 299.5 313.24s299.53-140.32 299.53-313.24c0-114.15-58.51-214.06-145.82-268.83-19.972-9.6254-109.8-64.749 0 9.9443 27.871 18.103 52.915 40.936 73.368 67.654 50.724 64.739 73.047 152.25 61.484 235.08-11.212 85.658-60.059 164.26-128.96 211.32-67.714 47.292-154.87 61.453-233.51 39.81-83.922-22.091-155.9-86.607-191.61-168.92-38.302-86.028-33.719-191.16 10.395-273.8 22.158-42.643 54.816-78.766 93.398-105.64 109.05-81.636 27.966-29.223 0-10.176z" stroke-linecap="round" stroke-linejoin="round" stroke-width="2.748"/>
    <path d="m242.67 842.78c0.002701-1.1536 58.147-30.154 68.561-34.196 14.373-5.5786 38.063-9.5925 46.46-7.872l6.103 1.2505-6.8155 8.1577c-3.7485 4.4867-9.9766 10.358-13.84 13.048-9.3229 6.4904-32.133 14.252-49.595 16.876-12.301 1.8483-50.876 3.9231-50.873 2.7364zm231.51-0.6364c-26.108-1.5767-28.094-1.9407-52.434-9.6077-14.562-4.587-18.286-6.804-29.527-17.578l-12.864-12.328 5.6801-1.5908c14.613-4.0928 61.509 9.4077 82.048 23.62 3.9029 2.7007 9.3318 5.5789 12.064 6.3958 6.2278 1.8619 23.847 10.868 23.847 12.19 0 0.54102-1.1178 0.8385-2.484 0.66107s-13.215-0.97058-26.331-1.7626zm-284.18-34.931c-10.93-3.397-23.761-7.2895-28.514-8.6499l-8.6417-2.4736 14.604-2.528c8.0319-1.3904 23.271-4.3019 33.864-6.4698 29.541-6.0456 59.13-4.2895 78.27 4.6453l5.1169 2.3886-6.3893 5.7153c-16.736 14.97-53.884 18.072-88.31 7.3722zm295.24 2.3534c-14.215-5.2376-27.201-14.353-23.484-16.484 7.7664-4.4529 33.679-9.9327 46.97-9.9327 12.253 0 44.525 5.0577 75.312 11.803 5.8038 1.2716 3.3525 2.3925-22.051 10.084-24.93 7.5476-30.968 8.6435-47.268 8.5795-13.381-0.052612-21.752-1.2025-29.479-4.0496zm-164.37-16.422c-12.545-3.7242-38.648-33.995-43.407-50.338l-1.3726-4.7138 8.5828 4.4859c4.7205 2.4673 14.765 6.6403 22.321 9.2733 25.131 8.7571 36.689 18.225 43.933 35.988l3.069 7.5253-13.441-0.1837c-7.3923-0.10095-16.251-1.0179-19.686-2.0375zm70.831-1.4064c0-5.5491 14.168-23.646 23.428-29.924 4.0865-2.7706 13.159-6.9644 20.161-9.3194 7.0021-2.355 17.137-6.4595 22.522-9.1212l9.7912-4.8393-1.2657 5.1667c-3.0583 12.484-22.433 37.762-34.492 45.002-6.9252 4.158-12.319 5.5349-24.512 6.2581-14.703 0.87201-15.633 0.68024-15.633-3.2236zm-125.2-9.999c-21.477-7.8483-36.674-25.618-44.79-52.373-2.7458-9.0513-5.5459-20.409-6.2224-25.239l-1.23-8.7816 26.765 27.105c27.619 27.97 33.252 36.34 34.97 51.964 0.99942 9.0842-0.8244 10.491-9.4922 7.3239zm201.25-6.6985c2.3487-17.94 12.541-31.683 50.34-67.873l12.127-11.611-1.6136 10.458c-5.1702 33.508-22.247 62.688-42.279 72.244-5.5937 2.6684-12.3 4.8607-14.903 4.8716-4.3734 0.018372-4.6523-0.59607-3.6713-8.0894zm-311.54-12.008c-22.876-7.2728-28.8-10.288-50.701-25.802-12.126-8.5902-21.776-15.818-21.444-16.063 3.0026-2.2063 74.662 5.7953 80.939 9.0378 1.7212 0.8891 8.9422 4.5173 16.046 8.0627 7.1044 3.5454 16.407 9.5854 20.672 13.422l7.7545 6.9761-7.1329 3.0533c-11.854 5.0745-32.456 5.6606-46.134 1.3123zm394.75 1.6393c-4.7617-0.95911-9.9263-2.8224-11.477-4.1408-3.6581-3.1104-0.18048-7.233 14.553-17.252 16.302-11.086 34.709-16.792 61.616-19.098 34.642-2.9698 44.056-3.3073 42.987-1.5408-2.2816 3.7708-43.21 30.369-52.763 34.289-22.279 9.1423-37.391 11.273-54.917 7.7433zm-357.47-26.929c-12.48-9.6484-23.701-26.083-26.348-38.591-1.2654-5.9795-1.9822-22.316-1.6298-37.142l0.6291-26.468 7.2622 14.252c3.9942 7.8385 9.6033 17.758 12.465 22.044 13.898 20.817 21.653 49.029 17.842 64.915l-1.799 7.501-8.4215-6.5105zm347.72-13.926c1.0517-21.957 4.4343-32.794 14.952-47.901 2.4708-3.5489 8.4169-13.978 13.214-23.175l8.7211-16.722 1.3916 17.115c1.6734 20.582-1.1244 46.984-6.1372 57.913-3.9152 8.5364-20.788 27.079-28.478 31.295l-4.6738 2.5627 1.0101-21.088zm-423.02-25.099c-6.7016-1.5186-15.191-4.3538-18.865-6.3004-11.991-6.3529-32.43-24.485-41.41-36.737-4.8356-6.5973-11.477-14.973-14.759-18.612-6.7312-7.464-6.3344-7.8113 4.2116-3.6864 4.1208 1.6118 12.518 3.9424 18.66 5.1793 12.829 2.5831 35.05 12.988 47.553 22.268 9.5016 7.0517 24.294 23.973 28.853 33.004 2.7113 5.3716 2.6646 5.8438-0.58023 5.8693-1.9408 0.01532-5.3172 0.42133-7.5032 0.90222-2.186 0.4809-9.4576-0.3681-16.159-1.8867zm487.63 1.5517c-3.0057-0.47607-5.4649-1.3286-5.4649-1.8947 0-4.0452 12.154-20.717 21.623-29.661 13.074-12.349 39.9-26.841 55.978-30.24 5.9576-1.2596 14.752-3.6104 19.543-5.2241 10.322-3.4768 12.554-2.4574 5.292 2.4174-2.8716 1.9276-8.2986 8.1851-12.06 13.906-11.624 17.678-17.974 23.74-42.391 40.471-9.2038 6.3065-32.258 11.851-42.518 10.226zm-471-27.048c-5.1529-6.1676-7.6176-11.897-10.103-23.486-1.8082-8.4305-3.2875-18.866-3.2875-23.19 0-11.322 7.2543-45.795 11.738-55.781 3.7732-8.4031 3.8274-8.4358 4.001-2.4107 0.096756 3.3594 3.2905 18.934 7.0972 34.612 4.3362 17.857 6.9308 33.499 6.9469 41.877 0.02536 13.23-4.3887 33.252-7.808 35.417-0.97278 0.61597-4.8357-2.5511-8.5843-7.0379zm463.81 2.4368c-8.0486-20.835-7.7418-34.456 1.6377-72.693 3.2962-13.437 6.0046-26.897 6.0186-29.91 0.082947-17.802 8.8027 2.3089 13.968 32.215 4.965 28.745-1.4697 62.238-13.743 71.535l-5.7542 4.3586-2.127-5.5058zm-516.67-57.524c-14.246-5.1832-28.514-16.665-37.022-29.794-3.8378-5.9219-12.308-21.792-18.823-35.267l-11.845-24.5 9.3627 5.5151c5.1495 3.0333 14.59 9.2355 20.978 13.783 6.3883 4.5471 14.751 10.218 18.584 12.602 14.388 8.9479 30.711 35.036 33.632 53.753 1.4755 9.4532 0.83472 9.6216-14.867 3.909zm564.1 1.0535c0-1.7158 2.8078-10.579 6.2395-19.696 7.0234-18.659 16.318-30.414 33.272-42.078 15.501-10.665 40.782-26.711 42.096-26.718 2.0973-0.012085-23.946 51.851-30.839 61.414-8.0665 11.19-21.402 21.083-35.575 26.39-12.345 4.6229-15.194 4.752-15.194 0.68872zm-550.27-26.342c-5.348-14.644-5.4134-33.163-0.17843-50.528 4.2573-14.122 29.772-56.503 29.677-49.295-0.31342 23.697-4.2844 71.216-6.5706 78.626-3.9009 12.645-9.9097 24.407-14.768 28.908-3.93 3.6412-4.0591 3.5194-8.1604-7.7112zm543.78 7.5744c-4.7989-5.4594-12.594-22.799-15.178-33.763-2.0308-8.6163-6.588-74.764-5.2512-76.222 1.4869-1.6216 25.446 39.006 29.143 49.418 6.1216 17.24 6.0624 41.182-0.13458 54.459-2.4827 5.319-4.7241 9.6709-4.9809 9.6709-0.25671 0-1.8761-1.6033-3.5986-3.563zm-580.13-73c-18.171-12.26-28.431-32.977-34.277-69.215-1.6442-10.191-3.6303-20.269-4.4136-22.396-1.0927-2.9664 0.24473-2.4447 5.7462 2.2416 3.9437 3.3593 9.3561 7.6583 12.028 9.5532 8.3636 5.9325 29.679 38.436 33.574 51.198 4.4035 14.425 4.9574 35.957 0.92502 35.957-1.4872 0-7.5992-3.3027-13.582-7.3395zm609.15-7.8143c1.472-17.842 6.0615-31.26 15.407-45.044 6.9901-10.311 36.952-41.6 39.835-41.6 0.8927 0 0.74109 2.3766-0.33679 5.2812-1.078 2.9047-3.2159 13.212-4.751 22.905-5.397 34.077-16.763 55.932-34.835 66.983-16.095 9.8418-16.802 9.4484-15.319-8.524zm-587.95-9.9892c-0.90263-7.4015-0.29539-15.067 1.8951-23.923 5.489-22.191 11.579-32.286 30.915-51.245 9.852-9.6599 17.913-17.096 17.913-16.525 0 0.57114-1.4299 5.7915-3.1777 11.601-9.674 32.156-15.722 49.789-19.294 56.249-5.4876 9.9248-23.679 34.734-25.468 34.734-0.80007 0-2.0524-4.9011-2.7829-10.891zm571.86 1.0539c-16.119-19.585-24.792-39.507-39.15-89.925l-1.4495-5.0899 4.9322 5.0899c2.7128 2.7995 11.659 11.792 19.88 19.984 12.737 12.69 15.744 17.058 20.325 29.522 5.7167 15.553 8.4205 38.015 5.5126 45.796-1.6987 4.5458-2.0299 4.3686-10.05-5.3762zm-585.89-67.308c-15.861-9.9093-22.196-31.864-19.699-68.277 0.85016-12.4 1.5678-25.45 1.5948-29.001 0.04763-6.2758 0.23772-6.1342 6.8295 5.0899 3.7293 6.35 8.0187 12.951 9.5321 14.668 4.0869 4.6388 11.933 23.868 14.797 36.265 2.5172 10.896 1.8947 22.341-2.0265 37.26-2.3696 9.0159-2.7628 9.1584-11.028 3.995zm600.9-0.731c-1.6129-2.9095-2.5448-12.381-2.554-25.959-0.013611-20.028 0.39124-22.213 6.4139-34.612 3.5358-7.2786 10.335-19.408 15.109-26.954l8.6808-13.72 1.7038 19.828c2.9957 34.862 0.8551 54.292-7.7469 70.319-3.5268 6.5709-13.914 15.678-17.882 15.678-0.65228 0-2.3287-2.0614-3.7254-4.5809zm-581.85-12.841c0-17.214 9.8707-36.083 26.918-51.456 7.1772-6.4726 42.019-26.812 45.93-26.812 0.58641 0-1.7536 3.4357-5.2002 7.6349s-11.642 15.881-18.212 25.959c-13.16 20.185-26.155 34.882-38.863 43.952-10.122 7.2245-10.572 7.2552-10.572 0.7226zm563.35-0.1514c-11.781-7.9761-28.583-25.186-32.869-33.668-5.8602-11.596-15.892-26.44-23.12-34.21-3.6155-3.8866-6.5736-7.8405-6.5736-8.7865 0-0.94598 9.0017 3.1029 20.004 8.9976 15.683 8.4026 22.751 13.702 32.725 24.533 12.679 13.77 15.521 19.772 19.826 41.874 1.5607 8.012 0.22955 8.1798-9.9922 1.2591zm-560.74-68.327c-12.869-22.345-12.371-36.868 2.8433-82.914l5.6614-17.135 6.718 20.879c5.2935 16.452 6.7131 24.187 6.6947 36.476-0.025635 17.114-5.4019 34.937-13.419 44.486l-4.4285 5.2747-4.0701-7.0675zm560.43 4.162c-1.1904-1.5147-4.7295-7.793-7.8649-13.952-5.3013-10.414-5.6916-12.766-5.5732-33.594 0.11359-19.988 0.78809-24.147 6.2728-38.683 3.7126-9.8394 6.6042-15.079 7.3041-13.234 8.7063 22.951 17.021 53.914 17.064 63.548 0.038757 8.6027-6.4456 27.797-11.589 34.304-2.8236 3.5724-3.8423 3.8647-5.6138 1.6104zm-540.03-12.425c6.844-22.112 35.125-43.245 68.738-51.363 19.757-4.7719 21.149-4.0322 9.4119 5.003-5.7887 4.4562-13.703 11.149-17.588 14.873-16.637 15.948-49.101 35.997-58.368 36.048-2.843 0.015686-3.3099-0.95493-2.1938-4.561zm518.71 3.1177c-7.0734-1.8539-27.981-14.693-38.945-23.915-6.0114-5.0566-17.363-14.446-25.226-20.864-7.863-6.4189-13.992-11.982-13.62-12.363 1.8754-1.9214 26.935 4.6629 41.467 10.895 18.634 7.9918 33.913 21.065 40.814 34.922 6.3037 12.659 5.7671 14.013-4.489 11.325zm-501.58-66.233c-3.0068-14.196-1.2423-31.277 4.4371-42.952 2.8075-5.771 10.844-17.623 17.86-26.337l12.755-15.845 1.389 13.289c3.0467 29.147-3.9287 53.385-20.09 69.809-5.7849 5.8789-11.418 10.689-12.518 10.689s-2.8248-3.8938-3.8328-8.6529zm478.02-0.3283c-5.5753-5.268-11.682-13.828-14.873-20.847-4.844-10.656-5.488-14.694-6.1204-38.377l-0.7067-26.468 7.6304 8.9765c22.119 26.021 28.134 37.252 29.786 55.616 1.0996 12.22-1.7828 30.106-4.8443 30.058-0.77759-0.011932-5.6703-4.0437-10.873-8.9594zm-448.31-7.4443c16.979-16.459 33.98-22.282 64.893-22.227 21.85 0.039368 25.727 2.1567 12.929 7.0607-5.2519 2.0124-16.703 7.2852-25.447 11.717-17.42 8.83-35.905 13.676-52.375 13.731l-10.643 0.0353 10.643-10.318zm410.08 7.424c-6.5579-1.372-20.419-6.6476-30.802-11.724-10.383-5.0759-22.223-10.458-26.311-11.959-10.707-3.9336-5.69-5.9312 14.989-5.968 31.77-0.05661 51.913 7.3419 68.845 25.286l6.8484 7.258-10.823-0.1995c-5.9526-0.10971-16.188-1.322-22.746-2.6941zm-355.24-41.815c-4.1108-0.81673-8.0388-2.0635-8.729-2.7706-2.2539-2.3091 3.2107-6.9553 13.782-11.718 15.871-7.1504 40.567-6.7022 63.529 1.153 9.5636 3.2717 17.388 6.6757 17.388 7.5646 0 0.88887-3.3535 1.6238-7.4522 1.6331-4.0987 0.009277-17.289 1.3657-29.312 3.0142-23.329 3.1988-37.17 3.5148-49.206 1.1235zm281.71-0.0414c-6.5579-0.9137-19.345-2.3515-28.415-3.1952-9.0704-0.84369-15.777-2.25-14.904-3.125 3.3561-3.3641 32.091-11.9 44.414-13.194 14.916-1.5657 34.527 2.66 43.825 9.4434 6.6239 4.8323 7.1764 6.9979 2.2774 8.9266-5.681 2.2366-34.364 2.9317-47.197 1.1437zm-309.88-7.3816c-4.3509-17.76 8.6787-39.786 33.844-57.209 6.456-4.4699 13.656-9.1632 16-10.429l4.2624-2.3023-3.5437 14.114c-4.9864 19.861-10.588 30.671-22.106 42.658-8.1541 8.4869-22.371 18.472-26.3 18.472-0.47157 0-1.4421-2.387-2.1568-5.3043zm368.31 1.2428c-9.3392-5.0502-27.283-25.233-31.885-35.864-3.8017-8.7823-10.433-33.265-9.3066-34.362 0.36072-0.35141 7.1394 3.6617 15.064 8.918 16.033 10.635 33.312 30.016 36.491 40.93 2.418 8.3016 1.6697 22.847-1.218 23.677-1.093 0.31409-5.2085-1.1708-9.1456-3.2998zm-304.76-37.167c4.1447-19.718 14.403-27.83 45.625-36.078 7.6509-2.0212 15.566-4.3695 17.589-5.2184 6.9773-2.9277-2.0712 10.834-17.552 26.694-14.871 15.236-26.516 21.219-41.295 21.219-5.4577 0-5.6862-0.34605-4.3681-6.6169zm231.57 3.2641c-4.844-1.7371-12.343-6.0453-16.664-9.5737-7.3707-6.0182-29.697-34.048-28.278-35.501 0.357-0.36574 4.9954 0.71431 10.308 2.4001 5.3122 1.6858 15.346 4.7151 22.296 6.7317 19.354 5.6153 34.062 20.797 34.062 35.159 0 3.3304-1.2597 4.1184-6.4585 4.0402-3.5522-0.053467-10.422-1.5185-15.266-3.2557z" stroke-width="1.015"/>
  </g>
  <path d="M 99.555 130.33 C 104.234 136.781 105.246 141.497 106.83 141.046 C 108.07 140.693 107.474 139.633 110.748 138.884 C 113.892 138.166 117.104 140.747 117.771 143.861 C 118.66 146.913 117.219 150.75 113.996 151.696 C 110.807 152.85 107.005 150.974 105.87 147.798 C 104.226 144.166 103.382 139.37 98.068 135.253 L 93.989 132.093 L 79.872 112.164 C 78.294 109.587 77.346 106.159 79.392 102.896 L 99.554 130.33 L 99.555 130.33 Z M 114.699 142.36 C 111.98 139.647 107.171 141.301 107.179 144.922 C 106.986 148.253 111.035 151.287 114.045 149.385 C 116.579 148.052 116.56 144.216 114.699 142.36 Z" style="stroke-width: 0px;"/>
  <path d="M 92.344 130.154 C 87.679 136.616 86.678 141.333 85.092 140.886 C 83.852 140.536 84.445 139.474 81.17 138.733 C 78.024 138.022 74.818 140.61 74.158 143.725 C 73.275 146.779 74.725 150.613 77.95 151.552 C 81.142 152.7 84.939 150.815 86.067 147.636 C 87.704 144 88.536 139.202 93.842 135.074 L 97.914 131.905 L 111.986 111.944 C 113.559 109.363 114.499 105.933 112.445 102.674 L 92.344 130.153 L 92.344 130.154 Z M 77.226 142.217 C 79.939 139.499 84.752 141.142 84.752 144.763 C 84.952 148.093 80.91 151.136 77.897 149.241 C 75.36 147.914 75.369 144.078 77.226 142.217 Z" style="stroke-width: 0px;"/>
  <path d="M 121.215 133.063 C 120.913 132.91 120.891 132.849 120.359 130.76 L 119.872 128.847 L 118.274 128.257 C 116.176 127.483 116.17 127.48 116.032 127.364 C 115.692 127.078 115.689 126.48 116.027 126.195 C 116.091 126.142 116.865 125.643 117.748 125.085 C 119.25 124.138 119.356 124.064 119.372 123.949 C 119.382 123.882 119.419 123.037 119.452 122.072 C 119.487 121.106 119.525 120.242 119.537 120.152 C 119.609 119.604 120.215 119.311 120.701 119.589 C 120.806 119.649 121.529 120.232 122.308 120.885 C 123.095 121.544 123.756 122.072 123.798 122.072 C 123.839 122.072 124.704 121.837 125.721 121.551 C 126.738 121.264 127.627 121.03 127.697 121.03 C 128.114 121.033 128.501 121.475 128.452 121.893 C 128.442 121.981 128.116 122.842 127.729 123.807 C 127.341 124.773 127.016 125.591 127.006 125.626 C 126.996 125.663 127.438 126.361 128.101 127.357 L 129.214 129.026 L 129.214 129.307 C 129.214 129.557 129.201 129.606 129.098 129.753 C 129.029 129.851 128.906 129.957 128.795 130.014 L 128.609 130.11 L 126.63 129.981 C 125.541 129.91 124.626 129.863 124.596 129.874 C 124.566 129.885 124 130.581 123.339 131.42 C 122.677 132.258 122.079 132.985 122.011 133.034 C 121.827 133.164 121.442 133.178 121.215 133.063 Z" style="fill: rgb(255, 107, 107);" transform="matrix(0.918722, 0.394905, -0.394905, 0.918722, 59.837254, -38.107368)"/>
  <path d="M 63.753 133.063 C 63.452 132.91 63.429 132.849 62.898 130.76 L 62.411 128.847 L 60.812 128.257 C 58.715 127.483 58.708 127.48 58.57 127.364 C 58.23 127.078 58.228 126.48 58.566 126.195 C 58.629 126.142 59.404 125.643 60.287 125.085 C 61.788 124.138 61.894 124.064 61.911 123.949 C 61.921 123.882 61.957 123.037 61.991 122.072 C 62.025 121.106 62.063 120.242 62.075 120.152 C 62.148 119.604 62.754 119.311 63.239 119.589 C 63.345 119.649 64.068 120.232 64.846 120.885 C 65.633 121.544 66.294 122.072 66.336 122.072 C 66.377 122.072 67.243 121.837 68.259 121.551 C 69.276 121.264 70.165 121.03 70.236 121.03 C 70.653 121.033 71.039 121.475 70.99 121.893 C 70.98 121.981 70.655 122.842 70.267 123.807 C 69.879 124.773 69.554 125.591 69.545 125.626 C 69.534 125.663 69.976 126.361 70.639 127.357 L 71.752 129.026 L 71.752 129.307 C 71.752 129.557 71.74 129.606 71.636 129.753 C 71.567 129.851 71.445 129.957 71.334 130.014 L 71.148 130.11 L 69.168 129.981 C 68.079 129.91 67.164 129.863 67.134 129.874 C 67.104 129.885 66.539 130.581 65.877 131.42 C 65.215 132.258 64.617 132.985 64.549 133.034 C 64.365 133.164 63.98 133.178 63.753 133.063 Z" style="fill: rgb(255, 107, 107);" transform="matrix(0.918722, 0.394905, -0.394905, 0.918722, 55.166874, -15.415435)"/>
  <path d="M 212.09101611328126 93.42879975585937 L 212.09101611328126 131.05599975585938 L 202.92541611328124 131.05599975585938 L 202.92541611328124 115.56559975585938 L 188.66781611328125 115.56559975585938 L 188.66781611328125 131.05599975585938 L 179.50221611328124 131.05599975585938 L 179.50221611328124 93.42879975585937 L 188.66781611328125 93.42879975585937 L 188.66781611328125 108.16879975585937 L 202.92541611328124 108.16879975585937 L 202.92541611328124 93.42879975585937 Z M 242.09907639160156 124.40959975585938 L 228.05587639160157 124.40959975585938 L 225.80467639160156 131.05599975585938 L 216.21027639160155 131.05599975585938 L 229.82467639160157 93.42879975585937 L 240.43747639160156 93.42879975585937 L 254.05187639160158 131.05599975585938 L 244.35027639160157 131.05599975585938 Z M 239.74067639160157 117.33439975585938 L 235.07747639160158 103.55919975585937 L 230.46787639160155 117.33439975585938 Z M 267.34327692871096 93.42879975585937 L 267.34327692871096 131.05599975585938 L 258.1776769287109 131.05599975585938 L 258.1776769287109 93.42879975585937 Z M 293.1796940917969 131.05599975585938 L 285.35409409179687 116.85199975585937 L 283.1564940917969 116.85199975585937 L 283.1564940917969 131.05599975585938 L 273.99089409179686 131.05599975585938 L 273.99089409179686 93.42879975585937 L 289.3740940917969 93.42879975585937 Q 293.82289409179685 93.42879975585937 296.95849409179687 94.98319975585937 Q 300.0940940917969 96.53759975585938 301.64849409179686 99.24439975585938 Q 303.2028940917969 101.95119975585938 303.2028940917969 105.27439975585938 Q 303.2028940917969 109.02639975585937 301.0856940917969 111.97439975585937 Q 298.96849409179686 114.92239975585937 294.8412940917969 116.15519975585937 L 303.5244940917969 131.05599975585938 Z M 283.1564940917969 110.36639975585938 L 288.83809409179685 110.36639975585938 Q 291.35729409179686 110.36639975585938 292.6168940917969 109.13359975585938 Q 293.87649409179687 107.90079975585937 293.87649409179687 105.64959975585937 Q 293.87649409179687 103.50559975585938 292.6168940917969 102.27279975585938 Q 291.35729409179686 101.03999975585937 288.83809409179685 101.03999975585937 L 283.1564940917969 101.03999975585937 Z" transform="matrix(1, 0, 0, 1, 0, 0)" style="fill: rgb(51, 51, 51); white-space: pre;"/>
  <path d="M 249.95602282714844 169.02201403808593 Q 248.34002282714843 169.02201403808593 247.12802282714844 168.71901403808593 Q 246.01702282714842 168.41601403808593 246.01702282714842 167.91101403808594 Q 246.01702282714842 167.10301403808595 247.63302282714844 167.00201403808595 Q 249.14802282714842 166.90101403808595 249.65302282714845 166.69901403808595 Q 250.56202282714844 166.49701403808595 251.77402282714843 166.39601403808595 Q 252.88502282714845 166.19401403808592 253.59202282714844 166.09301403808593 Q 258.4400228271484 164.67901403808594 258.4400228271484 161.75001403808594 Q 258.4400228271484 159.73001403808593 256.31902282714844 156.59901403808593 Q 255.00602282714843 154.68001403808594 255.00602282714843 152.35701403808594 Q 255.00602282714843 149.52901403808593 256.77352282714844 146.80201403808593 Q 258.5410228271484 144.07501403808592 261.21752282714846 142.00451403808594 Q 263.89402282714843 139.93401403808593 266.62102282714847 139.22701403808594 Q 267.83302282714845 138.92401403808594 269.14602282714844 138.92401403808594 Q 271.2670228271484 138.92401403808594 272.1760228271484 139.93401403808593 Q 272.78202282714847 140.54001403808593 272.78202282714847 142.56001403808594 Q 272.78202282714847 144.07501403808592 272.2770228271484 145.64051403808594 Q 271.7720228271484 147.20601403808593 270.8630228271484 148.21601403808594 Q 270.35802282714843 148.72101403808594 270.05502282714843 148.72101403808594 Q 269.55002282714844 148.72101403808594 269.55002282714844 147.30701403808592 L 269.65102282714844 145.28701403808594 Q 269.75202282714844 144.47901403808595 269.80252282714844 143.87301403808593 Q 269.85302282714844 143.26701403808593 269.85302282714844 142.86301403808594 Q 269.85302282714844 141.14601403808592 269.14602282714844 140.84301403808593 Q 268.33802282714845 140.64101403808593 268.03502282714845 140.64101403808593 Q 265.9140228271484 140.64101403808593 263.49002282714844 142.56001403808594 Q 261.06602282714846 144.47901403808595 259.5510228271484 147.00401403808593 Q 258.9450228271484 147.91301403808595 258.9450228271484 149.22601403808594 Q 258.9450228271484 150.84201403808595 259.8035228271484 153.01351403808593 Q 260.66202282714846 155.18501403808594 261.06602282714846 156.19501403808593 Q 262.07602282714845 158.41701403808594 262.63152282714844 160.03301403808592 Q 263.18702282714844 161.64901403808594 263.18702282714844 162.86101403808593 Q 263.18702282714844 163.46701403808595 263.08602282714844 163.77001403808595 Q 263.59102282714844 163.56801403808595 265.5100228271484 163.16401403808592 Q 267.22702282714846 162.76001403808593 268.43902282714845 162.76001403808593 Q 269.14602282714844 162.76001403808593 269.14602282714844 163.06301403808592 Q 269.14602282714844 163.16401403808592 268.54002282714845 163.77001403808595 Q 268.23702282714845 164.07301403808594 266.67152282714846 164.72951403808594 Q 265.1060228271484 165.38601403808593 263.03552282714844 166.09301403808593 Q 260.96502282714846 166.80001403808595 258.9450228271484 167.40601403808594 Q 256.92502282714844 168.01201403808594 255.51102282714845 168.31501403808593 Q 253.08702282714845 169.02201403808593 249.95602282714844 169.02201403808593 Z M 287.93154809570314 167.50701403808594 Q 287.72954809570314 167.50701403808594 287.52754809570314 167.45651403808594 Q 287.32554809570314 167.40601403808594 287.12354809570314 167.30501403808594 Q 285.7095480957031 166.59801403808595 285.3055480957031 165.28501403808593 Q 284.9015480957031 163.97201403808594 285.1035480957031 161.95201403808593 Q 285.3055480957031 161.14401403808594 285.5580480957031 159.12401403808593 Q 285.8105480957031 157.10401403808595 286.21454809570315 155.89201403808593 L 281.06354809570314 160.84101403808594 L 278.2355480957031 163.56801403808595 Q 275.30654809570314 166.49701403808595 273.38754809570315 166.49701403808595 Q 272.5795480957031 166.49701403808595 272.0745480957031 165.89101403808593 Q 271.1655480957031 164.78001403808594 271.1655480957031 163.16401403808592 Q 271.1655480957031 161.04301403808594 272.2765480957031 158.61901403808594 Q 273.38754809570315 156.19501403808593 274.90254809570314 153.92251403808595 Q 276.4175480957031 151.65001403808594 277.6295480957031 150.13501403808593 Q 280.65954809570314 146.39801403808593 283.5380480957031 144.27701403808595 Q 286.41654809570315 142.15601403808594 289.5475480957031 142.15601403808594 Q 291.2645480957031 142.15601403808594 292.93104809570315 142.76201403808594 Q 294.59754809570313 143.36801403808593 296.0115480957031 144.78201403808595 L 296.1125480957031 144.88301403808595 Q 296.1125480957031 145.18601403808594 295.6075480957031 145.48901403808594 Q 295.4055480957031 145.69101403808594 295.2540480957031 145.79201403808594 Q 295.1025480957031 145.89301403808594 295.00154809570313 145.99401403808594 Q 293.78954809570314 147.20601403808593 292.27454809570315 150.03401403808593 Q 290.7595480957031 152.86201403808593 289.6485480957031 155.94251403808593 Q 288.53754809570313 159.02301403808593 288.53754809570313 161.24501403808594 Q 288.53754809570313 163.26501403808595 289.5475480957031 163.97201403808594 Q 290.0525480957031 164.27501403808594 290.6585480957031 164.27501403808594 Q 291.97154809570316 164.27501403808594 294.29454809570314 162.65901403808593 Q 294.39554809570313 162.55801403808593 294.74904809570313 162.30551403808593 Q 295.1025480957031 162.05301403808593 295.8095480957031 161.54801403808594 Q 296.6175480957031 160.94201403808594 297.1225480957031 160.94201403808594 Q 297.6275480957031 160.94201403808594 297.6275480957031 161.34601403808594 Q 297.6275480957031 161.95201403808593 296.8195480957031 162.76001403808593 Q 296.2135480957031 163.26501403808595 295.4560480957031 163.87101403808595 Q 294.69854809570313 164.47701403808594 293.68854809570314 165.08301403808593 Q 292.17354809570315 166.19401403808592 290.5575480957031 166.85051403808595 Q 288.9415480957031 167.50701403808594 287.93154809570314 167.50701403808594 Z M 276.5185480957031 161.04301403808594 Q 278.6395480957031 161.04301403808594 284.3965480957031 154.78101403808594 Q 285.9115480957031 153.06401403808593 287.12354809570314 151.49851403808594 Q 288.33554809570313 149.93301403808593 289.3455480957031 148.41801403808594 Q 291.1635480957031 145.48901403808594 290.5575480957031 144.37801403808595 Q 290.2545480957031 143.77201403808593 289.3455480957031 143.77201403808593 Q 288.23454809570313 143.77201403808593 286.31554809570315 144.93351403808595 Q 284.3965480957031 146.09501403808594 282.4270480957031 147.91301403808595 Q 280.45754809570315 149.73101403808593 278.8415480957031 151.54901403808594 Q 277.7305480957031 152.96301403808593 276.6195480957031 155.48801403808594 Q 275.50854809570313 158.01301403808594 275.50854809570313 159.62901403808593 Q 275.50854809570313 161.04301403808594 276.5185480957031 161.04301403808594 Z M 301.7622658691406 171.44601403808593 Q 300.6512658691406 171.44601403808593 299.8937658691406 170.73901403808594 Q 299.13626586914063 170.03201403808595 299.23726586914063 169.02201403808593 Q 299.4392658691406 164.88101403808594 300.8027658691406 161.04301403808594 Q 302.1662658691406 157.20501403808595 304.79226586914064 151.85201403808594 Q 305.09526586914063 151.14501403808595 305.34776586914063 150.58951403808595 Q 305.6002658691406 150.03401403808593 305.8022658691406 149.63001403808593 Q 308.0242658691406 144.88301403808595 310.34726586914064 140.54001403808593 Q 312.6702658691406 136.19701403808594 314.9932658691406 132.05601403808595 L 316.40726586914064 129.53101403808594 Q 318.8312658691406 125.18801403808592 320.6492658691406 122.51151403808593 Q 322.46726586914065 119.83501403808594 324.28526586914063 118.62301403808593 Q 326.6082658691406 117.20901403808594 327.1132658691406 117.20901403808594 Q 327.9212658691406 117.20901403808594 328.72926586914065 118.62301403808593 Q 329.23426586914064 119.63301403808593 326.7092658691406 123.57201403808594 Q 325.3962658691406 125.59201403808594 323.42676586914064 128.62201403808592 Q 321.45726586914066 131.65201403808595 318.7302658691406 135.49001403808595 Q 318.2252658691406 136.19701403808594 317.06376586914064 137.96451403808595 Q 315.90226586914065 139.73201403808594 313.9832658691406 142.56001403808594 Q 312.0642658691406 145.38801403808594 310.65026586914064 147.66051403808592 Q 309.23626586914065 149.93301403808593 308.3272658691406 151.65001403808594 Q 306.5092658691406 154.98301403808594 304.89326586914063 158.77051403808593 Q 303.27726586914065 162.55801403808593 303.27726586914065 164.67901403808594 Q 303.27726586914065 166.59801403808595 304.79226586914064 166.59801403808595 Q 307.2162658691406 166.59801403808595 312.5692658691406 162.45701403808593 Q 313.1752658691406 162.55801403808593 313.1752658691406 163.06301403808592 Q 313.1752658691406 163.46701403808595 312.1652658691406 164.47701403808594 Q 311.25626586914063 165.38601403808593 309.89276586914065 166.44651403808595 Q 308.5292658691406 167.50701403808594 306.7112658691406 168.92101403808593 L 305.09526586914063 170.13301403808595 Q 303.47926586914065 171.44601403808593 301.7622658691406 171.44601403808593 Z M 320.3476552734375 166.49701403808595 Q 316.4086552734375 166.49701403808595 316.4086552734375 162.96201403808593 Q 316.4086552734375 162.76001403808593 316.4591552734375 162.25501403808593 Q 316.5096552734375 161.75001403808594 316.6106552734375 161.04301403808594 Q 317.6206552734375 156.90201403808595 320.7011552734375 153.01351403808593 Q 323.7816552734375 149.12501403808594 327.8216552734375 146.19601403808593 Q 329.3366552734375 144.98401403808595 332.6696552734375 144.98401403808595 Q 334.5886552734375 144.98401403808595 336.0531552734375 145.53951403808594 Q 337.5176552734375 146.09501403808594 338.1236552734375 147.20601403808593 Q 338.7296552734375 148.21601403808594 338.7296552734375 149.52901403808593 Q 338.7296552734375 149.73101403808593 338.6791552734375 150.13501403808593 Q 338.6286552734375 150.53901403808592 338.5276552734375 151.04401403808595 Q 338.7296552734375 150.94301403808595 339.1841552734375 150.94301403808595 Q 339.6386552734375 150.94301403808595 340.3456552734375 150.84201403808595 Q 341.0526552734375 150.74101403808595 341.7091552734375 150.64001403808595 Q 342.3656552734375 150.53901403808592 343.0726552734375 150.53901403808592 L 343.4766552734375 150.53901403808592 Q 344.5876552734375 150.53901403808592 343.7291552734375 151.39751403808594 Q 342.8706552734375 152.25601403808594 341.4566552734375 152.45801403808593 L 338.0226552734375 152.86201403808593 Q 337.01265527343753 155.69001403808593 334.5381552734375 158.51801403808594 Q 332.0636552734375 161.34601403808594 329.0841552734375 163.41651403808595 Q 326.1046552734375 165.48701403808593 323.4786552734375 166.09301403808593 Q 321.9636552734375 166.49701403808595 320.3476552734375 166.49701403808595 Z M 333.2756552734375 151.44801403808594 Q 333.8816552734375 151.44801403808594 334.7401552734375 151.39751403808594 Q 335.5986552734375 151.34701403808594 336.7096552734375 151.24601403808595 Q 336.8106552734375 151.04401403808595 336.8106552734375 150.33701403808593 Q 336.8106552734375 148.51901403808594 335.2956552734375 147.81201403808595 Q 334.4876552734375 147.30701403808592 333.2756552734375 147.30701403808592 Q 331.7606552734375 147.30701403808592 330.1951552734375 148.26651403808594 Q 328.6296552734375 149.22601403808594 326.9126552734375 150.74101403808595 Q 329.0336552734375 151.44801403808594 333.2756552734375 151.44801403808594 Z M 323.3776552734375 162.96201403808593 Q 324.3876552734375 162.96201403808593 326.2561552734375 162.00251403808593 Q 328.1246552734375 161.04301403808594 330.1446552734375 159.42701403808593 Q 332.1646552734375 157.81101403808594 333.7806552734375 155.99301403808593 Q 334.2856552734375 155.48801403808594 334.7906552734375 154.73051403808594 Q 335.2956552734375 153.97301403808595 335.9016552734375 153.16501403808593 L 333.4776552734375 153.46801403808593 Q 327.8216552734375 154.27601403808595 323.3776552734375 154.37701403808595 Q 321.1556552734375 158.01301403808594 320.6506552734375 160.43701403808595 Q 320.5496552734375 161.75001403808594 321.3576552734375 162.35601403808593 Q 322.1656552734375 162.96201403808593 323.3776552734375 162.96201403808593 Z M 341.35669140625 166.39601403808595 Q 339.53869140625 166.39601403808595 339.53869140625 164.98201403808594 Q 339.53869140625 164.07301403808594 340.19519140625 162.65901403808593 Q 340.85169140625 161.24501403808594 341.55869140625 159.93201403808592 Q 343.47769140625 156.49801403808593 345.09369140625 153.26601403808593 Q 346.70969140625 150.03401403808593 348.22469140625 146.39801403808593 Q 348.93169140625 144.78201403808595 350.34569140625 144.78201403808595 Q 351.86069140625 144.78201403808595 351.25469140625 146.60001403808593 Q 350.64869140625 148.11501403808595 350.04269140625 149.32701403808593 Q 347.21469140625 155.08401403808594 347.21469140625 157.10401403808595 Q 347.21469140625 158.01301403808594 347.82069140625 158.21501403808594 Q 349.23469140625 157.10401403808595 349.94169140625 156.54851403808593 Q 350.64869140625 155.99301403808593 350.74969140625 155.89201403808593 Q 352.16369140625 154.78101403808594 353.93119140625 153.31651403808593 Q 355.69869140625 151.85201403808594 357.81969140625 149.93301403808593 Q 361.15269140625 146.90301403808593 363.37469140625 146.90301403808593 Q 366.10169140625 146.90301403808593 365.69769140625 151.85201403808594 Q 365.59669140625 153.77101403808592 365.69769140625 155.58901403808593 Q 365.79869140625 155.99301403808593 365.79869140625 156.75051403808592 Q 365.79869140625 157.50801403808595 365.79869140625 158.51801403808594 Q 365.79869140625 159.52801403808593 367.01069140625 159.52801403808593 Q 368.42469140625 159.52801403808593 369.63669140625 158.72001403808594 L 371.85869140625 157.20501403808595 L 374.08069140625 155.79101403808593 Q 374.28269140625 155.69001403808593 374.78769140625 155.69001403808593 Q 375.39369140625 155.69001403808593 374.78769140625 156.59901403808593 Q 368.42469140625 164.47701403808594 364.28369140625 164.47701403808594 Q 363.47569140625 164.47701403808594 362.66769140625 164.17401403808594 Q 361.96069140625 163.87101403808595 361.65769140625 162.40651403808593 Q 361.35469140625 160.94201403808594 361.30419140625 159.22501403808593 Q 361.25369140625 157.50801403808595 361.25369140625 156.59901403808593 L 361.35469140625 153.26601403808593 Q 361.35469140625 151.14501403808595 360.24369140625 151.14501403808595 Q 357.61769140625 151.14501403808595 347.31569140625 161.95201403808593 Q 346.50769140625 162.96201403808593 344.79069140625 164.67901403808594 Q 343.07369140625 166.39601403808595 341.35669140625 166.39601403808595 Z" transform="matrix(1, 0, 0, 1, 0, 0)" style="fill: rgb(255, 107, 107); white-space: pre;"/>
  <rect x="179.179" y="135.24" width="72.772" height="2.805" style="fill: rgb(255, 107, 107);"/>
</svg>